<?xml version="1.0" encoding="utf-8"?>
<!-- Generator: Adobe Illustrator 16.0.0, SVG Export Plug-In . SVG Version: 6.00 Build 0)  -->
<!DOCTYPE svg PUBLIC "-//W3C//DTD SVG 1.1//EN" "http://www.w3.org/Graphics/SVG/1.1/DTD/svg11.dtd">
<svg version="1.1" id="Layer_1" xmlns="http://www.w3.org/2000/svg" xmlns:xlink="http://www.w3.org/1999/xlink" x="0px" y="0px"
	 width="20px" height="20px" viewBox="0 0 20 20" enable-background="new 0 0 20 20" xml:space="preserve">
<g>
	<path fill="#2E307F" d="M10.807,8.143V8.119c-0.006,0.008-0.013,0.017-0.018,0.024H10.807z"/>
	<path d="M0,0v20h20V0H0z"/>
</g>
<path fill="#FFFFFF" d="M11.566,4.044c0.317,0,0.639,0.018,0.957,0.032c0.207,0.008,0.412,0.039,0.608,0.059l-0.016,1.918h-0.154
	c-0.209,0-0.42-0.002-0.629-0.002c-0.158,0-0.315,0.001-0.476,0.007c-0.51,0.015-0.881,0.207-0.907,0.841
	c-0.019,0.457-0.027,1.468-0.027,1.521c0.022,0,0.527,0.001,1.033,0.001c0.252,0,0.5,0,0.67-0.001h0.412
	c-0.104,0.734-0.195,1.441-0.302,2.155h-1.813l-0.041,5.379H8.651l0.042-5.39H6.868l0.016-2.143h1.833l0.002-0.16
	c0.003-0.433-0.002-0.864,0.015-1.296c0.007-0.27,0.02-0.552,0.069-0.823C8.926,5.489,9.23,4.939,9.779,4.547
	c0.482-0.344,1.03-0.487,1.608-0.501C11.447,4.044,11.506,4.044,11.566,4.044"/>
</svg>
