<svg width="19" height="22" viewBox="0 0 19 22" fill="none" xmlns="http://www.w3.org/2000/svg">
<path d="M0.536133 17.7154H3.55566L3.27527 18.4622H2.48576V21.3195H1.5158V18.4622H0.536133V17.7154ZM8.54101 17.7154V18.4622H9.52067V21.3195H10.4939V18.4622H11.2834L11.5638 17.7154H8.54101ZM4.21306 18.5636C4.47407 18.5636 4.68351 18.3754 4.68351 18.141C4.68351 17.9065 4.47407 17.7184 4.21306 17.7184C3.95206 17.7184 3.74252 17.9065 3.74252 18.141C3.74252 18.3754 3.95206 18.5636 4.21306 18.5636ZM3.74262 21.3166H4.6965V18.8618H3.74262V21.3166ZM8.12532 18.5433H7.01026L6.04998 19.4059V17.7153H5.1025L5.0993 21.3136H6.05638V20.3757L6.35285 20.1325L7.28096 21.3136H8.30249L6.9587 19.5883L8.12532 18.5433ZM17.2709 19.5912L18.4376 18.5433H17.3226L16.3623 19.4059V17.7153H15.4148L15.4083 21.3165H16.3654V20.3786L16.6651 20.1354L17.5932 21.3165H18.6147L17.2709 19.5912ZM14.8186 19.8576C14.8186 20.671 14.0741 21.3311 13.1557 21.3311C12.2373 21.3311 11.4929 20.671 11.4929 19.8576C11.4929 19.0442 12.2373 18.3842 13.1557 18.3842C14.0741 18.3842 14.8186 19.0441 14.8186 19.8576ZM13.971 19.8576C13.971 19.4523 13.6069 19.1252 13.1557 19.1252C12.7046 19.1252 12.3404 19.4523 12.3404 19.8576C12.3404 20.2629 12.7046 20.59 13.1557 20.59C13.6069 20.59 13.971 20.2629 13.971 19.8576Z" fill="#F5E7D3" fill-opacity="0.8"/>
<path d="M15.6986 3.93382V3.93068C15.3969 3.85784 15.1013 3.75026 14.8244 3.60773C14.283 3.3323 13.8631 2.88911 13.7821 2.79734L13.7744 2.79004C13.778 2.79247 13.7816 2.79491 13.7852 2.79734L13.7697 2.78153C12.7399 1.58174 12.88 0.359863 12.88 0.359863H12.3186H12.1706H12.1675H12.1014H11.9694H10.3008V10.4455C10.3008 10.8 10.3039 11.1419 10.1858 11.4838C9.99908 12.0314 9.59777 12.5221 9.06265 12.7405C8.26002 13.0666 7.6346 13.0317 6.88484 12.5284C6.69817 12.3955 6.53639 12.234 6.40258 12.0504C6.40089 12.0494 6.3992 12.0484 6.39751 12.0475C6.05085 11.567 5.97638 11.008 5.97947 10.5815C6.06967 9.7933 6.37461 9.35325 6.94706 8.90054C7.76841 8.2896 8.79195 8.63463 8.79195 8.63463V5.99152C8.54615 5.95353 8.29725 5.93773 8.04836 5.94401V5.94087C7.48835 5.95039 6.93452 6.06749 6.41812 6.28914C5.94213 6.47593 5.49721 6.74499 5.10516 7.08049C4.66332 7.46989 4.2869 7.93526 4.00067 8.45432C3.89176 8.64425 3.48108 9.40714 3.43131 10.6449C3.40333 11.3445 3.60862 12.0726 3.70817 12.3733V12.3764C3.7704 12.5506 4.01302 13.1584 4.41125 13.6743C4.52633 13.8231 4.65078 13.9655 4.7815 14.1017L4.78767 14.108L4.7815 14.1017C4.97036 14.2965 5.17395 14.4764 5.39049 14.6396L5.39059 14.6397H5.39069C5.43798 14.6753 5.48586 14.7102 5.53435 14.7442C6.7819 15.6021 8.16634 15.5451 8.16634 15.5451C8.40587 15.5356 9.2086 15.5451 10.1201 15.1083C11.1312 14.624 11.7069 13.9022 11.7069 13.9022C11.794 13.7946 12.2669 13.2596 12.5718 12.4492C12.8052 11.8287 12.8829 11.0848 12.8829 10.7872V5.43751C12.914 5.45645 13.331 5.73503 13.331 5.73503C13.331 5.73503 13.9314 6.12442 14.8679 6.37767C15.5399 6.55809 16.4453 6.59608 16.4453 6.59608V4.00665C16.2742 4.0257 16.0097 4.00665 15.6986 3.93382Z" fill="#F5E7D3" fill-opacity="0.8"/>
</svg>
