<svg width="21" height="21" viewBox="0 0 21 21" fill="none" xmlns="http://www.w3.org/2000/svg">
<path d="M18.8896 0.364258H2.37925C1.37126 0.364258 0.556763 1.18325 0.556763 2.18674V18.6971C0.556763 19.7051 1.37126 20.5196 2.37925 20.5196H18.8896C19.8976 20.5196 20.7121 19.7051 20.7121 18.6971V2.18674C20.7121 1.17875 19.8931 0.364258 18.8896 0.364258ZM6.79371 17.7656C6.79371 18.0581 6.55521 18.2966 6.26272 18.2966H4.00373C3.71124 18.2966 3.47274 18.0581 3.47274 17.7656V8.29769C3.47274 8.00519 3.71124 7.76668 4.00373 7.76668H6.26272C6.55521 7.76668 6.79371 8.00519 6.79371 8.29769V17.7656ZM5.13322 6.8757C3.94973 6.8757 2.98675 5.9172 2.98675 4.72921C2.98675 3.54572 3.94523 2.58274 5.13322 2.58274C6.32121 2.58274 7.27971 3.54122 7.27971 4.72921C7.27971 5.9127 6.31671 6.8757 5.13322 6.8757ZM18.5971 17.8106C18.5971 18.0806 18.3811 18.2966 18.1111 18.2966H15.6856C15.4156 18.2966 15.1996 18.0761 15.1996 17.8106V13.3691C15.1996 12.7076 15.3931 10.4667 13.4672 10.4667C11.9732 10.4667 11.6717 12.0011 11.6087 12.6896V17.8106C11.6087 18.0806 11.3927 18.2966 11.1227 18.2966H8.77819C8.50819 18.2966 8.2922 18.0761 8.2922 17.8106V8.25718C8.2922 7.98718 8.51269 7.77119 8.77819 7.77119H11.1227C11.3927 7.77119 11.6087 7.99168 11.6087 8.25718V9.08068C12.1622 8.24819 12.9857 7.60918 14.7361 7.60918C18.6151 7.60918 18.5926 11.2362 18.5926 13.2251V17.8106H18.5971Z" fill="#F5E7D3" fill-opacity="0.8"/>
</svg>
