<svg width="23" height="22" viewBox="0 0 23 22" fill="none" xmlns="http://www.w3.org/2000/svg">
<path d="M22.4507 11.2454C22.6307 5.03548 17.6043 -0.0404807 11.4123 0.0495185C5.45438 0.135018 0.648429 5.05348 0.693429 11.0114C0.724928 15.2819 3.2179 18.9629 6.82237 20.7178C7.02937 20.8168 7.27237 20.6638 7.26337 20.4298C7.23637 19.7278 7.25887 18.9808 7.39837 18.3824C7.53787 17.7884 8.07786 15.4979 8.43336 13.9949C8.60436 13.2614 8.62686 12.5009 8.48736 11.7629C8.44236 11.5199 8.40636 11.2364 8.40636 10.9169C8.40636 9.31043 9.33785 8.10895 10.4988 8.10895C11.4843 8.10895 11.9613 8.85144 11.9613 9.73793C11.9613 10.7324 11.3313 12.2129 11.0028 13.5899C10.7328 14.7419 11.5788 15.6779 12.7173 15.6779C14.7738 15.6779 16.3533 13.5089 16.3533 10.3814C16.3533 7.61395 14.3643 5.67447 11.5248 5.67447C8.23536 5.67447 6.30487 8.14494 6.30487 10.6919C6.30487 11.6864 6.68737 12.7529 7.16437 13.3334C7.25887 13.4459 7.27237 13.5494 7.24537 13.6664C7.15987 14.0309 6.96187 14.8184 6.92587 14.9804C6.87637 15.1919 6.75937 15.2369 6.53887 15.1334C5.09439 14.4629 4.18989 12.3479 4.18989 10.6514C4.18989 7.00196 6.84038 3.65399 11.8308 3.65399C15.8448 3.65399 18.9588 6.51146 18.9588 10.3319C18.9588 14.3189 16.4478 17.5274 12.9558 17.5274C12.0333 17.5274 11.1558 17.1494 10.6383 16.6409C10.4808 16.4834 10.2108 16.5554 10.1523 16.7714C9.97234 17.4644 9.67535 18.5849 9.58085 18.9494C9.40985 19.6063 9.04985 20.3668 8.68985 21.0328C8.59536 21.2083 8.68986 21.4288 8.88785 21.4783C9.77885 21.7033 10.7103 21.8203 11.6733 21.8113C17.3838 21.7528 22.2842 16.9514 22.4507 11.2454Z" fill="#F5E7D3" fill-opacity="0.8"/>
</svg>
