<svg width="23" height="23" viewBox="0 0 23 23" fill="none" xmlns="http://www.w3.org/2000/svg">
<path d="M15.788 0H6.87353C3.25106 0 0.303589 2.94746 0.303589 6.56993V15.4844C0.303589 19.1068 3.25106 22.0543 6.87353 22.0543H15.788C19.4104 22.0543 22.3579 19.1068 22.3579 15.4844V6.56993C22.3624 2.94746 19.4104 0 15.788 0ZM20.1439 15.4844C20.1439 17.8873 18.1954 19.8358 15.7925 19.8358H6.87353C4.47055 19.8358 2.52207 17.8873 2.52207 15.4844V6.56993C2.52207 4.16695 4.47055 2.21848 6.87353 2.21848H15.788C18.1909 2.21848 20.1394 4.16695 20.1394 6.56993V15.4844H20.1439Z" fill="#F5E7D3" fill-opacity="0.8"/>
<path d="M11.3332 5.32349C8.18774 5.32349 5.62726 7.88396 5.62726 11.0294C5.62726 14.1749 8.18774 16.7354 11.3332 16.7354C14.4787 16.7354 17.0392 14.1749 17.0392 11.0294C17.0392 7.88396 14.4787 5.32349 11.3332 5.32349ZM11.3332 14.5124C9.40723 14.5124 7.84574 12.9509 7.84574 11.0249C7.84574 9.09896 9.40723 7.53747 11.3332 7.53747C13.2592 7.53747 14.8207 9.09896 14.8207 11.0249C14.8162 12.9509 13.2592 14.5124 11.3332 14.5124Z" fill="#F5E7D3" fill-opacity="0.8"/>
</svg>
