<?xml version="1.0" encoding="utf-8"?>
<!-- Generator: Adobe Illustrator 16.0.0, SVG Export Plug-In . SVG Version: 6.00 Build 0)  -->
<!DOCTYPE svg PUBLIC "-//W3C//DTD SVG 1.1//EN" "http://www.w3.org/Graphics/SVG/1.1/DTD/svg11.dtd">
<svg version="1.1" id="Layer_1" xmlns="http://www.w3.org/2000/svg" xmlns:xlink="http://www.w3.org/1999/xlink" x="0px" y="0px"
	 width="12.313px" height="12.312px" viewBox="0 0 12.313 12.312" enable-background="new 0 0 12.313 12.312" xml:space="preserve">
<g>
	<path fill="#AAA8A6" d="M6.157,12.312c3.395,0,6.155-2.761,6.156-6.156C12.312,2.761,9.551,0,6.157,0C2.762,0,0,2.761,0,6.156
		C0,9.551,2.762,12.313,6.157,12.312z M6.156,0.499c3.121,0,5.659,2.537,5.66,5.658c0,3.122-2.539,5.659-5.66,5.658
		c-3.12,0-5.659-2.536-5.659-5.658C0.498,3.037,3.037,0.499,6.156,0.499z"/>
	<path fill="#AAA8A6" d="M5.98,7.501c0.048,0.048,0.111,0.073,0.176,0.073c0.066,0.001,0.13-0.024,0.178-0.072l1.868-1.868
		c0.097-0.099,0.098-0.254,0-0.354c-0.099-0.097-0.255-0.097-0.353,0L6.156,6.974L4.464,5.281c-0.098-0.096-0.256-0.096-0.353,0
		C4.064,5.329,4.039,5.395,4.039,5.457c0,0.063,0.026,0.129,0.073,0.177L5.98,7.501z"/>
</g>
</svg>
