<svg width="25" height="16" viewBox="0 0 25 16" fill="none" xmlns="http://www.w3.org/2000/svg">
<path d="M1.09311 0.000244141C0.504015 0.000244141 0.00219727 0.490911 0.00219727 1.06691V14.9336C0.00219727 15.5096 0.504015 16.0002 1.09311 16.0002H22.9113C23.5004 16.0002 24.0022 15.5096 24.0022 14.9336V1.06691C24.0022 0.490911 23.5004 0.000244141 22.9113 0.000244141H1.09311ZM2.89038 1.60024H21.1113L12.0022 9.84292L2.89038 1.60024ZM1.63856 2.64292L7.27311 7.73358L1.63856 13.2429V2.64292ZM22.3658 2.64292V13.2429L16.7313 7.73358L22.3658 2.64292ZM8.47311 8.82692L11.4486 11.5176C11.7622 11.8002 12.2422 11.8002 12.5558 11.5176L15.5313 8.82692L21.234 14.4029H2.77311L8.47311 8.82692Z" fill="#F5E7D3" fill-opacity="0.8"/>
</svg>
