<?xml version="1.0" encoding="utf-8"?>
<!-- Generator: Adobe Illustrator 16.0.0, SVG Export Plug-In . SVG Version: 6.00 Build 0)  -->
<!DOCTYPE svg PUBLIC "-//W3C//DTD SVG 1.1//EN" "http://www.w3.org/Graphics/SVG/1.1/DTD/svg11.dtd">
<svg version="1.1" id="Layer_1" xmlns="http://www.w3.org/2000/svg" xmlns:xlink="http://www.w3.org/1999/xlink" x="0px" y="0px"
	 width="20px" height="20px" viewBox="0 0 20 20" enable-background="new 0 0 20 20" xml:space="preserve">
<path fill="#1828F7" d="M0,0v20h20V0H0z M15.826,9.887c-0.482,1.769-1.592,3.033-2.99,3.829c-3.286,1.865-8.07,1.597-10.471-1.796
	c1.578,1.234,3.907,1.51,5.639-0.215c-1.133,0-1.426-0.848-0.527-1.309c-0.853-0.009-1.392-0.276-1.712-0.764
	c-0.12-0.186-0.12-0.201,0.075-0.34c0.215-0.16,0.511-0.228,0.817-0.249C5.775,8.788,5.236,8.328,5.049,7.709
	C4.987,7.505,4.978,7.515,5.187,7.462c0.204-0.051,0.466-0.076,0.698-0.088C5.192,6.95,4.782,6.436,4.673,5.868
	C4.574,5.33,4.678,5.469,5.078,5.621c1.798,0.688,3.59,1.431,4.652,2.524c0.487-1.525,1.084-2.508,1.77-3.228
	c0.514-0.533,0.775-0.701,0.477-0.112c0.133-0.109,0.324-0.25,0.475-0.325c0.828-0.393,0.771-0.061,0.193,0.29
	c1.564-0.559,1.51,0.153-0.141,0.507c1.352,0.024,2.783,0.885,3.199,2.712c0.057,0.252-0.012,0.228,0.244,0.271
	c0.562,0.102,1.088,0.095,1.602-0.068C17.49,8.57,16.99,8.815,16.213,8.979c-0.289,0.058-0.35,0.044,0,0.123
	c0.426,0.095,0.9,0.119,1.406,0.095C17.227,9.649,16.598,9.877,15.826,9.887z"/>
</svg>
