<svg width="26" height="25" viewBox="0 0 26 25" fill="none" xmlns="http://www.w3.org/2000/svg">
<path d="M18.6681 25.0009C18.209 24.9242 17.7466 24.8642 17.2908 24.7675C15.5917 24.3508 13.963 23.6839 12.455 22.797C10.0823 21.4867 7.93423 19.8129 6.08771 17.8357C3.83905 15.405 1.96908 12.7277 0.789453 9.6135C0.333689 8.4932 0.0689439 7.30288 0.0119734 6.09589C-0.0785091 4.90224 0.347094 3.72526 1.17819 2.85836C1.88195 2.1415 2.56224 1.39797 3.31961 0.744465C4.48918 -0.255802 5.76264 -0.255802 6.892 0.791144C8.08503 1.90477 9.23784 3.07509 10.3471 4.2654C11.1916 5.17231 11.1916 6.56935 10.3471 7.47626C9.75728 8.1431 9.1038 8.74993 8.48047 9.38677C8.4235 9.44012 8.36318 9.4868 8.25929 9.58015C9.92484 12.5776 12.4081 15.0449 15.4275 16.6921L16.9155 15.195C17.2807 14.7649 17.7399 14.4248 18.2559 14.1947C19.087 13.8346 20.0522 14.008 20.7057 14.6282C21.9557 15.8118 23.1722 17.0255 24.3585 18.2758C25.1896 19.1627 25.2197 20.5331 24.4222 21.4533C23.6715 22.3336 22.8404 23.1671 21.9992 23.974C21.3994 24.5208 20.6386 24.8609 19.8277 24.9376C19.7707 24.9509 19.7137 24.9676 19.6567 24.9876L18.6681 25.0009ZM19.0401 23.4972C19.8746 23.5439 20.6889 23.2238 21.2687 22.6236C21.8317 22.0368 22.4081 21.4633 22.9778 20.8832C23.0515 20.8098 23.1219 20.7298 23.1856 20.6498C23.5844 20.2497 23.581 19.6028 23.1822 19.2061C23.1755 19.1994 23.1655 19.1894 23.1554 19.1827C22.6963 18.6892 22.2104 18.2225 21.7345 17.7457C21.1145 17.1288 20.5012 16.5087 19.8746 15.9018C19.5059 15.4884 18.8692 15.4517 18.4537 15.8185C18.4369 15.8318 18.4235 15.8452 18.4101 15.8618C18.3163 15.9385 18.2325 16.0252 18.1453 16.1119C17.5488 16.7021 16.959 17.2989 16.3592 17.8824C16.0039 18.2891 15.4041 18.3892 14.9349 18.1191C14.5696 17.9357 14.2077 17.7523 13.8558 17.5456C12.3075 16.602 10.9034 15.4384 9.69361 14.0914C8.57095 12.9477 7.64267 11.634 6.93892 10.197C6.58369 9.41678 6.66077 9.03668 7.27404 8.44318C7.88731 7.84969 8.54414 7.21952 9.15071 6.57935C9.5428 6.22593 9.57632 5.62577 9.22444 5.23233C9.20768 5.21566 9.19093 5.19899 9.17417 5.18231C9.10044 5.09562 9.02337 5.0156 8.94629 4.93558L6.00393 1.9948C5.3739 1.37797 4.81425 1.3713 4.18423 1.9948C3.5542 2.6183 2.96103 3.16844 2.38798 3.79194C2.10648 4.08202 1.8786 4.42211 1.71774 4.79221C1.4664 5.58909 1.45634 6.43932 1.68758 7.24286C1.96573 8.48986 2.40473 9.69352 2.99455 10.8272C4.00326 12.8277 5.28677 14.6782 6.80152 16.332C9.40876 19.2861 12.713 21.5533 16.4128 22.9337C17.2539 23.2505 18.142 23.4372 19.0401 23.4839V23.4972Z" fill="#F5E7D3" fill-opacity="0.8"/>
</svg>
