<?xml version="1.0" encoding="utf-8"?>
<!-- Generator: Adobe Illustrator 16.0.0, SVG Export Plug-In . SVG Version: 6.00 Build 0)  -->
<!DOCTYPE svg PUBLIC "-//W3C//DTD SVG 1.1//EN" "http://www.w3.org/Graphics/SVG/1.1/DTD/svg11.dtd">
<svg version="1.1" id="Layer_1" xmlns="http://www.w3.org/2000/svg" xmlns:xlink="http://www.w3.org/1999/xlink" x="0px" y="0px"
	 width="20px" height="20px" viewBox="0 0 20 20" enable-background="new 0 0 20 20" xml:space="preserve">
<path fill="#1828F7" d="M0,0v20h20V0H0z"/>
<g id="Layer_2">
	<g>
		<path fill="#FFFFFF" d="M12.909,10c0-1.606-1.304-2.91-2.91-2.91C8.393,7.09,7.09,8.394,7.09,10c0,1.607,1.303,2.909,2.909,2.909
			C11.605,12.908,12.909,11.607,12.909,10z M13.738,10c0,2.066-1.674,3.741-3.739,3.741c-2.066,0-3.741-1.675-3.741-3.741
			c0-2.065,1.675-3.741,3.741-3.741C12.064,6.259,13.738,7.934,13.738,10z M6.674,17.066c-2.066,0-3.74-1.676-3.74-3.742v-6.65
			c0-2.066,1.674-3.74,3.74-3.74h6.651c2.065,0,3.741,1.674,3.741,3.74v6.65c0,2.066-1.678,3.742-3.741,3.742H6.674z M6.674,16.234
			h6.651c1.606,0,2.909-1.303,2.909-2.91v-6.65c0-1.607-1.303-2.909-2.909-2.909H6.674c-1.607,0-2.909,1.303-2.909,2.909v6.65
			C3.765,14.932,5.066,16.234,6.674,16.234z M14.986,5.843c0,0.459-0.371,0.831-0.832,0.831c-0.457,0-0.829-0.372-0.829-0.831
			c0-0.458,0.372-0.831,0.829-0.831C14.615,5.013,14.986,5.384,14.986,5.843z"/>
	</g>
</g>
</svg>
