<?xml version="1.0" encoding="utf-8"?>
<!-- Generator: Adobe Illustrator 21.0.0, SVG Export Plug-In . SVG Version: 6.00 Build 0)  -->
<svg version="1.1" id="Layer_1" xmlns="http://www.w3.org/2000/svg" xmlns:xlink="http://www.w3.org/1999/xlink" x="0px" y="0px"
	 viewBox="0 0 84.5 84" style="enable-background:new 0 0 84.5 84;" xml:space="preserve">
<style type="text/css">
	.st0{fill:#c8c8c8;}
</style>
<path class="st0" d="M78.5,70.8L60.6,52.9c9-11.7,8.1-28.6-2.7-39.3C52,7.7,44.4,4.8,36.7,4.8s-15.3,2.9-21.2,8.8
	C3.8,25.3,3.8,44.3,15.5,56c5.9,5.9,13.5,8.8,21.2,8.8c6.4,0,12.8-2,18.1-6.1l18,17.8c0.8,0.8,1.8,1.2,2.9,1.2c1,0,2.1-0.4,2.9-1.2
	C80.1,75,80.1,72.4,78.5,70.8z M36.8,56.7c-5.9,0-11.3-2.3-15.5-6.4c-8.5-8.5-8.5-22.4,0-31c4.1-4.1,9.6-6.4,15.5-6.4
	s11.3,2.3,15.5,6.4s6.4,9.6,6.4,15.5s-2.3,11.3-6.4,15.5S42.6,56.7,36.8,56.7z"/>
</svg>
